<mxfile host="app.diagrams.net" modified="2021-05-19T12:52:33.745Z" agent="5.0 (Windows NT 10.0; Win64; x64) AppleWebKit/537.36 (KHTML, like Gecko) Chrome/89.0.4389.114 Safari/537.36" etag="7F_xlUu2qQncIXTWa5BJ" version="14.6.13" type="github">
  <diagram name="Page-1" id="ad52d381-51e7-2e0d-a935-2d0ddd2fd229">
    <mxGraphModel dx="1221" dy="1429" grid="1" gridSize="10" guides="1" tooltips="1" connect="1" arrows="1" fold="1" page="1" pageScale="1" pageWidth="1100" pageHeight="850" background="#ffffff" math="0" shadow="0">
      <root>
        <mxCell id="0" />
        <mxCell id="1" parent="0" />
        <mxCell id="2c924340bb9dbf6c-2" value="&lt;p class=&quot;MsoNormal&quot;&gt;&lt;b&gt;&lt;span&gt;&lt;font face=&quot;Calibri&quot; style=&quot;font-size: 14px&quot;&gt;Partition-based online clustering&lt;/font&gt;&lt;/span&gt;&lt;/b&gt;&lt;/p&gt;" style="ellipse;whiteSpace=wrap;html=1;rounded=1;shadow=1;comic=0;labelBackgroundColor=none;strokeWidth=2;fontFamily=Verdana;fontSize=12;align=center;" parent="1" vertex="1">
          <mxGeometry x="260" y="110" width="120" height="80" as="geometry" />
        </mxCell>
        <mxCell id="2c924340bb9dbf6c-3" value="&lt;p class=&quot;MsoNormal&quot; align=&quot;justify&quot; style=&quot;text-align: justify&quot;&gt;&lt;b&gt;&lt;font face=&quot;Calibri&quot; style=&quot;font-size: 14px&quot;&gt;Hierarchical&amp;nbsp;&lt;/font&gt;&lt;/b&gt;&lt;/p&gt;&lt;p class=&quot;MsoNormal&quot; align=&quot;justify&quot; style=&quot;text-align: justify&quot;&gt;&lt;b&gt;&lt;font face=&quot;Calibri&quot; style=&quot;font-size: 14px&quot;&gt;clustering method&lt;/font&gt;&lt;/b&gt;&lt;/p&gt;" style="ellipse;whiteSpace=wrap;html=1;rounded=1;shadow=1;comic=0;labelBackgroundColor=none;strokeWidth=2;fontFamily=Verdana;fontSize=12;align=center;" parent="1" vertex="1">
          <mxGeometry x="625" y="110" width="135" height="80" as="geometry" />
        </mxCell>
        <mxCell id="2c924340bb9dbf6c-4" value="&lt;b&gt;&lt;font style=&quot;font-size: 15px&quot;&gt;online clustering&lt;/font&gt;&lt;/b&gt;" style="ellipse;whiteSpace=wrap;html=1;rounded=1;shadow=1;comic=0;labelBackgroundColor=none;strokeWidth=2;fontFamily=Verdana;fontSize=12;align=center;" parent="1" vertex="1">
          <mxGeometry x="450" y="260" width="120" height="120" as="geometry" />
        </mxCell>
        <mxCell id="2c924340bb9dbf6c-5" value="&lt;span&gt;&lt;b&gt;&lt;font style=&quot;font-size: 12px&quot;&gt;High Dimensional clustering method&lt;/font&gt;&lt;/b&gt;&lt;/span&gt;" style="ellipse;whiteSpace=wrap;html=1;rounded=1;shadow=1;comic=0;labelBackgroundColor=none;strokeWidth=2;fontFamily=Verdana;fontSize=12;align=center;" parent="1" vertex="1">
          <mxGeometry x="700" y="220" width="120" height="80" as="geometry" />
        </mxCell>
        <mxCell id="2c924340bb9dbf6c-7" value="&lt;div style=&quot;font-size: 14px&quot;&gt;&lt;span style=&quot;font-family: &amp;#34;calibri&amp;#34;&quot;&gt;&lt;font style=&quot;font-size: 14px&quot;&gt;&lt;b&gt;Density&lt;/b&gt;&lt;/font&gt;&lt;/span&gt;&lt;/div&gt;&lt;div style=&quot;font-size: 14px&quot;&gt;&lt;span style=&quot;font-family: &amp;#34;calibri&amp;#34;&quot;&gt;&lt;font style=&quot;font-size: 14px&quot;&gt;&lt;b&gt;based online clustering&amp;nbsp;&lt;/b&gt;&lt;/font&gt;&lt;/span&gt;&lt;/div&gt;" style="ellipse;whiteSpace=wrap;html=1;rounded=1;shadow=1;comic=0;labelBackgroundColor=none;strokeWidth=2;fontFamily=Verdana;fontSize=12;align=center;" parent="1" vertex="1">
          <mxGeometry x="780" y="480" width="120" height="80" as="geometry" />
        </mxCell>
        <mxCell id="2c924340bb9dbf6c-10" value="&lt;p class=&quot;MsoNormal&quot;&gt;&lt;b&gt;&lt;i&gt;&lt;span style=&quot;font-size: 14pt&quot;&gt;&lt;font face=&quot;Calibri&quot;&gt;STREAM&lt;/font&gt;&lt;/span&gt;&lt;/i&gt;&lt;/b&gt;&lt;/p&gt;" style="whiteSpace=wrap;html=1;rounded=1;shadow=1;comic=0;labelBackgroundColor=none;strokeWidth=2;fontFamily=Verdana;fontSize=12;align=center;arcSize=50;" parent="1" vertex="1">
          <mxGeometry x="120" y="70" width="100" height="20" as="geometry" />
        </mxCell>
        <mxCell id="2c924340bb9dbf6c-11" value="&lt;p class=&quot;MsoNormal&quot;&gt;&lt;span style=&quot;font-size: 12.0000pt&quot;&gt;&lt;font face=&quot;Calibri&quot;&gt;&lt;b&gt;CluStream&lt;/b&gt;&lt;/font&gt;&lt;/span&gt;&lt;/p&gt;" style="whiteSpace=wrap;html=1;rounded=1;shadow=1;comic=0;labelBackgroundColor=none;strokeWidth=2;fontFamily=Verdana;fontSize=12;align=center;arcSize=50;" parent="1" vertex="1">
          <mxGeometry x="740" y="45" width="100" height="20" as="geometry" />
        </mxCell>
        <mxCell id="2c924340bb9dbf6c-14" value="&lt;p class=&quot;MsoNormal&quot;&gt;&lt;span style=&quot;font-family: &amp;#34;calibri&amp;#34; ; font-size: 12.0000pt&quot;&gt;&lt;b&gt;REPSTREAM&lt;/b&gt;&lt;/span&gt;&lt;/p&gt;" style="whiteSpace=wrap;html=1;rounded=1;shadow=1;comic=0;labelBackgroundColor=none;strokeWidth=2;fontFamily=Verdana;fontSize=12;align=center;arcSize=50;" parent="1" vertex="1">
          <mxGeometry x="580" y="57.5" width="100" height="20" as="geometry" />
        </mxCell>
        <mxCell id="2c924340bb9dbf6c-15" value="&lt;p class=&quot;MsoNormal&quot;&gt;&lt;b&gt;&lt;span style=&quot;font-family: &amp;#34;calibri&amp;#34; ; font-size: 12.0000pt&quot;&gt;ClusTree&lt;/span&gt;&lt;span style=&quot;font-size: 12.0000pt&quot;&gt;&amp;nbsp;&lt;/span&gt;&lt;/b&gt;&lt;/p&gt;" style="whiteSpace=wrap;html=1;rounded=1;shadow=1;comic=0;labelBackgroundColor=none;strokeWidth=2;fontFamily=Verdana;fontSize=12;align=center;arcSize=50;" parent="1" vertex="1">
          <mxGeometry x="470" y="110" width="100" height="20" as="geometry" />
        </mxCell>
        <mxCell id="2c924340bb9dbf6c-31" value="" style="edgeStyle=none;rounded=1;html=1;labelBackgroundColor=none;startArrow=none;startFill=0;startSize=5;endArrow=classicThin;endFill=1;endSize=5;jettySize=auto;orthogonalLoop=1;strokeColor=#B3B3B3;strokeWidth=1;fontFamily=Verdana;fontSize=12" parent="1" source="2c924340bb9dbf6c-4" target="2c924340bb9dbf6c-2" edge="1">
          <mxGeometry relative="1" as="geometry" />
        </mxCell>
        <mxCell id="2c924340bb9dbf6c-32" value="" style="edgeStyle=none;rounded=1;html=1;labelBackgroundColor=none;startArrow=none;startFill=0;startSize=5;endArrow=classicThin;endFill=1;endSize=5;jettySize=auto;orthogonalLoop=1;strokeColor=#B3B3B3;strokeWidth=1;fontFamily=Verdana;fontSize=12" parent="1" source="2c924340bb9dbf6c-4" target="2c924340bb9dbf6c-3" edge="1">
          <mxGeometry relative="1" as="geometry">
            <Array as="points">
              <mxPoint x="620" y="220" />
            </Array>
          </mxGeometry>
        </mxCell>
        <mxCell id="2c924340bb9dbf6c-33" value="" style="edgeStyle=none;rounded=1;html=1;labelBackgroundColor=none;startArrow=none;startFill=0;startSize=5;endArrow=classicThin;endFill=1;endSize=5;jettySize=auto;orthogonalLoop=1;strokeColor=#B3B3B3;strokeWidth=1;fontFamily=Verdana;fontSize=12" parent="1" source="2c924340bb9dbf6c-4" target="2c924340bb9dbf6c-5" edge="1">
          <mxGeometry relative="1" as="geometry" />
        </mxCell>
        <mxCell id="2c924340bb9dbf6c-35" value="" style="edgeStyle=none;rounded=1;html=1;labelBackgroundColor=none;startArrow=none;startFill=0;startSize=5;endArrow=classicThin;endFill=1;endSize=5;jettySize=auto;orthogonalLoop=1;strokeColor=#B3B3B3;strokeWidth=1;fontFamily=Verdana;fontSize=12;exitX=1;exitY=1;exitDx=0;exitDy=0;" parent="1" source="2c924340bb9dbf6c-4" target="2c924340bb9dbf6c-7" edge="1">
          <mxGeometry x="-0.1021" y="-13" relative="1" as="geometry">
            <mxPoint as="offset" />
          </mxGeometry>
        </mxCell>
        <mxCell id="2c924340bb9dbf6c-44" value="" style="edgeStyle=none;rounded=1;html=1;labelBackgroundColor=none;startArrow=none;startFill=0;startSize=5;endArrow=classicThin;endFill=1;endSize=5;jettySize=auto;orthogonalLoop=1;strokeColor=#B3B3B3;strokeWidth=1;fontFamily=Verdana;fontSize=12" parent="1" source="2c924340bb9dbf6c-3" target="2c924340bb9dbf6c-15" edge="1">
          <mxGeometry relative="1" as="geometry" />
        </mxCell>
        <mxCell id="2c924340bb9dbf6c-45" value="" style="edgeStyle=none;rounded=1;html=1;labelBackgroundColor=none;startArrow=none;startFill=0;startSize=5;endArrow=classicThin;endFill=1;endSize=5;jettySize=auto;orthogonalLoop=1;strokeColor=#B3B3B3;strokeWidth=1;fontFamily=Verdana;fontSize=12" parent="1" source="2c924340bb9dbf6c-3" target="2c924340bb9dbf6c-14" edge="1">
          <mxGeometry relative="1" as="geometry" />
        </mxCell>
        <mxCell id="2c924340bb9dbf6c-46" value="" style="edgeStyle=none;rounded=1;html=1;labelBackgroundColor=none;startArrow=none;startFill=0;startSize=5;endArrow=classicThin;endFill=1;endSize=5;jettySize=auto;orthogonalLoop=1;strokeColor=#B3B3B3;strokeWidth=1;fontFamily=Verdana;fontSize=12" parent="1" source="2c924340bb9dbf6c-3" target="2c924340bb9dbf6c-11" edge="1">
          <mxGeometry relative="1" as="geometry" />
        </mxCell>
        <mxCell id="1oA8xBJ8QGd1Spcs3NDZ-18" value="Extended from CluStream" style="edgeStyle=orthogonalEdgeStyle;rounded=0;orthogonalLoop=1;jettySize=auto;html=1;entryX=1;entryY=0.5;entryDx=0;entryDy=0;" edge="1" parent="1" source="2c924340bb9dbf6c-58" target="2c924340bb9dbf6c-11">
          <mxGeometry x="-0.5833" relative="1" as="geometry">
            <Array as="points">
              <mxPoint x="990" y="55" />
            </Array>
            <mxPoint as="offset" />
          </mxGeometry>
        </mxCell>
        <mxCell id="2c924340bb9dbf6c-58" value="&lt;p class=&quot;MsoNormal&quot;&gt;&lt;span style=&quot;font-family: &amp;#34;calibri&amp;#34; ; font-size: 12.0000pt&quot;&gt;&lt;b&gt;HPSTREAM&amp;nbsp;&lt;/b&gt;&lt;/span&gt;&lt;/p&gt;" style="whiteSpace=wrap;html=1;rounded=1;shadow=1;comic=0;labelBackgroundColor=none;strokeWidth=2;fontFamily=Verdana;fontSize=12;align=center;arcSize=50;" parent="1" vertex="1">
          <mxGeometry x="950" y="150" width="100" height="30" as="geometry" />
        </mxCell>
        <mxCell id="2c924340bb9dbf6c-59" value="&lt;span&gt;Topic 18&lt;/span&gt;" style="whiteSpace=wrap;html=1;rounded=1;shadow=1;comic=0;labelBackgroundColor=none;strokeWidth=2;fontFamily=Verdana;fontSize=12;align=center;arcSize=50;" parent="1" vertex="1">
          <mxGeometry x="490" y="610" width="100" height="20" as="geometry" />
        </mxCell>
        <mxCell id="2c924340bb9dbf6c-67" value="&lt;p class=&quot;MsoNormal&quot; align=&quot;justify&quot; style=&quot;text-align: justify&quot;&gt;&lt;b&gt;&lt;span style=&quot;font-family: &amp;#34;calibri&amp;#34; ; font-weight: bold&quot;&gt;&lt;font style=&quot;font-size: 14px&quot;&gt;Grid-based&lt;/font&gt;&lt;/span&gt;&lt;/b&gt;&lt;/p&gt;&lt;p class=&quot;MsoNormal&quot; align=&quot;justify&quot; style=&quot;text-align: justify&quot;&gt;&lt;b&gt;&lt;span style=&quot;font-family: &amp;#34;calibri&amp;#34; ; font-weight: bold&quot;&gt;&lt;font style=&quot;font-size: 14px&quot;&gt;&amp;nbsp; clustering&lt;/font&gt;&lt;/span&gt;&lt;/b&gt;&lt;b&gt;&lt;span style=&quot;font-family: &amp;#34;calibri&amp;#34; ; font-weight: bold ; font-size: 14.0000pt&quot;&gt;&lt;/span&gt;&lt;/b&gt;&lt;/p&gt;" style="ellipse;whiteSpace=wrap;html=1;rounded=1;shadow=1;comic=0;labelBackgroundColor=none;strokeWidth=2;fontFamily=Verdana;fontSize=12;align=center;" parent="1" vertex="1">
          <mxGeometry x="230" y="600" width="140" height="90" as="geometry" />
        </mxCell>
        <mxCell id="2c924340bb9dbf6c-68" value="&lt;span&gt;MR-Stream&lt;/span&gt;" style="whiteSpace=wrap;html=1;rounded=1;shadow=1;comic=0;labelBackgroundColor=none;strokeWidth=2;fontFamily=Verdana;fontSize=12;align=center;arcSize=50;" parent="1" vertex="1">
          <mxGeometry x="280" y="470" width="100" height="20" as="geometry" />
        </mxCell>
        <mxCell id="2c924340bb9dbf6c-69" value="&lt;span&gt;D-Stream&lt;/span&gt;" style="whiteSpace=wrap;html=1;rounded=1;shadow=1;comic=0;labelBackgroundColor=none;strokeWidth=2;fontFamily=Verdana;fontSize=12;align=center;arcSize=50;" parent="1" vertex="1">
          <mxGeometry x="470" y="540" width="100" height="20" as="geometry" />
        </mxCell>
        <mxCell id="2c924340bb9dbf6c-70" value="&lt;p class=&quot;MsoNormal&quot;&gt;&lt;span style=&quot;font-size: 12.0000pt&quot;&gt;&lt;font face=&quot;Calibri&quot;&gt;DUCstream&lt;/font&gt;&lt;/span&gt;&lt;/p&gt;" style="whiteSpace=wrap;html=1;rounded=1;shadow=1;comic=0;labelBackgroundColor=none;strokeWidth=2;fontFamily=Verdana;fontSize=12;align=center;arcSize=50;" parent="1" vertex="1">
          <mxGeometry x="180" y="520" width="100" height="20" as="geometry" />
        </mxCell>
        <mxCell id="2c924340bb9dbf6c-72" value="" style="edgeStyle=none;rounded=1;html=1;labelBackgroundColor=none;startArrow=none;startFill=0;startSize=5;endArrow=classicThin;endFill=1;endSize=5;jettySize=auto;orthogonalLoop=1;strokeColor=#B3B3B3;strokeWidth=1;fontFamily=Verdana;fontSize=12" parent="1" source="2c924340bb9dbf6c-67" target="2c924340bb9dbf6c-70" edge="1">
          <mxGeometry relative="1" as="geometry" />
        </mxCell>
        <mxCell id="2c924340bb9dbf6c-73" value="" style="edgeStyle=none;rounded=1;html=1;labelBackgroundColor=none;startArrow=none;startFill=0;startSize=5;endArrow=classicThin;endFill=1;endSize=5;jettySize=auto;orthogonalLoop=1;strokeColor=#B3B3B3;strokeWidth=1;fontFamily=Verdana;fontSize=12" parent="1" source="2c924340bb9dbf6c-67" target="2c924340bb9dbf6c-69" edge="1">
          <mxGeometry relative="1" as="geometry" />
        </mxCell>
        <mxCell id="2c924340bb9dbf6c-74" value="" style="edgeStyle=none;rounded=1;html=1;labelBackgroundColor=none;startArrow=none;startFill=0;startSize=5;endArrow=classicThin;endFill=1;endSize=5;jettySize=auto;orthogonalLoop=1;strokeColor=#B3B3B3;strokeWidth=1;fontFamily=Verdana;fontSize=12" parent="1" source="2c924340bb9dbf6c-67" target="2c924340bb9dbf6c-68" edge="1">
          <mxGeometry relative="1" as="geometry" />
        </mxCell>
        <mxCell id="2c924340bb9dbf6c-77" value="" style="edgeStyle=none;rounded=1;html=1;labelBackgroundColor=none;startArrow=none;startFill=0;startSize=5;endArrow=classicThin;endFill=1;endSize=5;jettySize=auto;orthogonalLoop=1;strokeColor=#B3B3B3;strokeWidth=1;fontFamily=Verdana;fontSize=12" parent="1" source="2c924340bb9dbf6c-5" target="2c924340bb9dbf6c-58" edge="1">
          <mxGeometry relative="1" as="geometry" />
        </mxCell>
        <mxCell id="2c924340bb9dbf6c-78" value="relation" style="edgeStyle=none;rounded=1;html=1;labelBackgroundColor=none;startArrow=none;startFill=0;startSize=5;endArrow=classicThin;endFill=1;endSize=5;jettySize=auto;orthogonalLoop=1;strokeColor=#B3B3B3;strokeWidth=1;fontFamily=Verdana;fontSize=12" parent="1" source="2c924340bb9dbf6c-7" target="2c924340bb9dbf6c-59" edge="1">
          <mxGeometry relative="1" as="geometry" />
        </mxCell>
        <mxCell id="1oA8xBJ8QGd1Spcs3NDZ-4" style="edgeStyle=orthogonalEdgeStyle;rounded=0;orthogonalLoop=1;jettySize=auto;html=1;entryX=0;entryY=0.5;entryDx=0;entryDy=0;" edge="1" parent="1" source="1oA8xBJ8QGd1Spcs3NDZ-1" target="2c924340bb9dbf6c-10">
          <mxGeometry relative="1" as="geometry" />
        </mxCell>
        <mxCell id="1oA8xBJ8QGd1Spcs3NDZ-1" value="&lt;div&gt;&lt;span style=&quot;font-size: 13.9295pt ; font-family: &amp;#34;calibri&amp;#34;&quot;&gt;LSEARCH technique&amp;nbsp;&lt;/span&gt;&lt;/div&gt;" style="text;html=1;strokeColor=none;fillColor=none;align=center;verticalAlign=middle;whiteSpace=wrap;rounded=0;" vertex="1" parent="1">
          <mxGeometry x="10" y="22.5" width="170" height="20" as="geometry" />
        </mxCell>
        <mxCell id="1oA8xBJ8QGd1Spcs3NDZ-8" value="&lt;p class=&quot;MsoNormal&quot;&gt;&lt;i&gt;&lt;span style=&quot;font-style: italic ; font-size: 12.0000pt&quot;&gt;&lt;font face=&quot;Calibri&quot;&gt;extensions of k-means&lt;/font&gt;&lt;/span&gt;&lt;/i&gt;&lt;/p&gt;" style="text;whiteSpace=wrap;html=1;" vertex="1" parent="1">
          <mxGeometry x="70" y="77.5" width="170" height="40" as="geometry" />
        </mxCell>
        <mxCell id="1oA8xBJ8QGd1Spcs3NDZ-32" value="" style="edgeStyle=orthogonalEdgeStyle;rounded=0;orthogonalLoop=1;jettySize=auto;html=1;" edge="1" parent="1" source="1oA8xBJ8QGd1Spcs3NDZ-10" target="1oA8xBJ8QGd1Spcs3NDZ-20">
          <mxGeometry relative="1" as="geometry" />
        </mxCell>
        <mxCell id="1oA8xBJ8QGd1Spcs3NDZ-10" value="&lt;p class=&quot;MsoNormal&quot;&gt;&lt;font face=&quot;Calibri&quot;&gt;&lt;span style=&quot;font-size: 16px&quot;&gt;extensions of BIRCH&lt;/span&gt;&lt;/font&gt;&lt;/p&gt;" style="text;whiteSpace=wrap;html=1;" vertex="1" parent="1">
          <mxGeometry x="760" y="-20" width="70" height="10" as="geometry" />
        </mxCell>
        <mxCell id="1oA8xBJ8QGd1Spcs3NDZ-11" value="&lt;p class=&quot;MsoNormal&quot;&gt;&lt;font face=&quot;Calibri&quot; style=&quot;font-size: 13px&quot;&gt;CHAMELEON&lt;/font&gt;&lt;/p&gt;" style="text;whiteSpace=wrap;html=1;" vertex="1" parent="1">
          <mxGeometry x="590" y="22.5" width="120" height="35" as="geometry" />
        </mxCell>
        <mxCell id="1oA8xBJ8QGd1Spcs3NDZ-15" value="" style="edgeStyle=none;rounded=1;html=1;labelBackgroundColor=none;startArrow=none;startFill=0;startSize=5;endArrow=classicThin;endFill=1;endSize=5;jettySize=auto;orthogonalLoop=1;strokeColor=#B3B3B3;strokeWidth=1;fontFamily=Verdana;fontSize=12;entryX=0;entryY=0.5;entryDx=0;entryDy=0;" edge="1" parent="1" target="2c924340bb9dbf6c-58">
          <mxGeometry relative="1" as="geometry">
            <mxPoint x="760.0048576646934" y="150.36625064236875" as="sourcePoint" />
            <mxPoint x="921.0633333333333" y="90" as="targetPoint" />
          </mxGeometry>
        </mxCell>
        <mxCell id="1oA8xBJ8QGd1Spcs3NDZ-27" style="edgeStyle=orthogonalEdgeStyle;rounded=0;orthogonalLoop=1;jettySize=auto;html=1;entryX=1;entryY=0.5;entryDx=0;entryDy=0;" edge="1" parent="1" source="1oA8xBJ8QGd1Spcs3NDZ-20" target="2c924340bb9dbf6c-11">
          <mxGeometry relative="1" as="geometry" />
        </mxCell>
        <mxCell id="1oA8xBJ8QGd1Spcs3NDZ-28" value="Extended from &lt;br&gt;CluStream" style="edgeLabel;html=1;align=center;verticalAlign=middle;resizable=0;points=[];" vertex="1" connectable="0" parent="1oA8xBJ8QGd1Spcs3NDZ-27">
          <mxGeometry x="-0.3349" y="1" relative="1" as="geometry">
            <mxPoint x="9" y="-8" as="offset" />
          </mxGeometry>
        </mxCell>
        <mxCell id="1oA8xBJ8QGd1Spcs3NDZ-20" value="&lt;p class=&quot;MsoNormal&quot;&gt;&lt;span style=&quot;font-family: &amp;#34;cmr10&amp;#34; ; font-size: 13.284px ; text-align: left&quot;&gt;&lt;b&gt;SWClustering&lt;/b&gt;&lt;/span&gt;&lt;br&gt;&lt;/p&gt;" style="whiteSpace=wrap;html=1;rounded=1;shadow=1;comic=0;labelBackgroundColor=none;strokeWidth=2;fontFamily=Verdana;fontSize=12;align=center;arcSize=50;" vertex="1" parent="1">
          <mxGeometry x="850" y="-60" width="110" height="20" as="geometry" />
        </mxCell>
        <mxCell id="1oA8xBJ8QGd1Spcs3NDZ-23" value="&lt;p class=&quot;MsoNormal&quot;&gt;&lt;font face=&quot;Calibri&quot;&gt;&lt;span style=&quot;font-size: 16px&quot;&gt;extensions of BIRCH&lt;/span&gt;&lt;/font&gt;&lt;/p&gt;" style="text;whiteSpace=wrap;html=1;" vertex="1" parent="1">
          <mxGeometry x="490" y="50" width="70" height="10" as="geometry" />
        </mxCell>
        <mxCell id="1oA8xBJ8QGd1Spcs3NDZ-31" style="edgeStyle=orthogonalEdgeStyle;rounded=0;orthogonalLoop=1;jettySize=auto;html=1;entryX=0;entryY=0.5;entryDx=0;entryDy=0;" edge="1" parent="1" source="1oA8xBJ8QGd1Spcs3NDZ-30" target="2c924340bb9dbf6c-11">
          <mxGeometry relative="1" as="geometry" />
        </mxCell>
        <mxCell id="1oA8xBJ8QGd1Spcs3NDZ-33" value="Extended from&lt;br&gt;&amp;nbsp;CluStream" style="edgeLabel;html=1;align=center;verticalAlign=middle;resizable=0;points=[];" vertex="1" connectable="0" parent="1oA8xBJ8QGd1Spcs3NDZ-31">
          <mxGeometry x="-0.464" y="-1" relative="1" as="geometry">
            <mxPoint as="offset" />
          </mxGeometry>
        </mxCell>
        <mxCell id="1oA8xBJ8QGd1Spcs3NDZ-30" value="&lt;p class=&quot;MsoNormal&quot;&gt;&lt;span style=&quot;font-family: &amp;#34;cmr10&amp;#34; ; font-size: 13.284px ; text-align: left&quot;&gt;&lt;b&gt;E-Stream&lt;/b&gt;&lt;/span&gt;&lt;br&gt;&lt;/p&gt;" style="whiteSpace=wrap;html=1;rounded=1;shadow=1;comic=0;labelBackgroundColor=none;strokeWidth=2;fontFamily=Verdana;fontSize=12;align=center;arcSize=50;" vertex="1" parent="1">
          <mxGeometry x="650" y="-80" width="110" height="20" as="geometry" />
        </mxCell>
        <mxCell id="1oA8xBJ8QGd1Spcs3NDZ-35" value="" style="edgeStyle=none;rounded=1;html=1;labelBackgroundColor=none;startArrow=none;startFill=0;startSize=5;endArrow=classicThin;endFill=1;endSize=5;jettySize=auto;orthogonalLoop=1;strokeColor=#B3B3B3;strokeWidth=1;fontFamily=Verdana;fontSize=12;entryX=0.766;entryY=0.029;entryDx=0;entryDy=0;entryPerimeter=0;exitX=0;exitY=1;exitDx=0;exitDy=0;" edge="1" parent="1" source="2c924340bb9dbf6c-4" target="2c924340bb9dbf6c-67">
          <mxGeometry relative="1" as="geometry">
            <mxPoint x="549.1960202631456" y="298.07891538657805" as="sourcePoint" />
            <mxPoint x="373.62078915298775" y="187.46494131854797" as="targetPoint" />
          </mxGeometry>
        </mxCell>
        <mxCell id="1oA8xBJ8QGd1Spcs3NDZ-36" value="" style="edgeStyle=none;rounded=1;html=1;labelBackgroundColor=none;startArrow=none;startFill=0;startSize=5;endArrow=classicThin;endFill=1;endSize=5;jettySize=auto;orthogonalLoop=1;strokeColor=#B3B3B3;strokeWidth=1;fontFamily=Verdana;fontSize=12;exitX=0.023;exitY=0.398;exitDx=0;exitDy=0;exitPerimeter=0;entryX=1;entryY=0.25;entryDx=0;entryDy=0;" edge="1" parent="1" source="2c924340bb9dbf6c-2" target="2c924340bb9dbf6c-10">
          <mxGeometry relative="1" as="geometry">
            <mxPoint x="637.6792116830513" y="148.84232332249258" as="sourcePoint" />
            <mxPoint x="580" y="138.695652173913" as="targetPoint" />
          </mxGeometry>
        </mxCell>
        <mxCell id="1oA8xBJ8QGd1Spcs3NDZ-53" value="" style="edgeStyle=orthogonalEdgeStyle;rounded=0;orthogonalLoop=1;jettySize=auto;html=1;" edge="1" parent="1" source="1oA8xBJ8QGd1Spcs3NDZ-38" target="1oA8xBJ8QGd1Spcs3NDZ-49">
          <mxGeometry relative="1" as="geometry" />
        </mxCell>
        <mxCell id="1oA8xBJ8QGd1Spcs3NDZ-38" value="&lt;p class=&quot;MsoNormal&quot;&gt;&lt;b style=&quot;font-family: &amp;#34;helvetica&amp;#34; ; text-align: left&quot;&gt;&lt;span style=&quot;font-size: 12pt&quot;&gt;&lt;font face=&quot;Calibri&quot;&gt;CellTree&lt;/font&gt;&lt;/span&gt;&lt;/b&gt;&lt;br&gt;&lt;/p&gt;" style="whiteSpace=wrap;html=1;rounded=1;shadow=1;comic=0;labelBackgroundColor=none;strokeWidth=2;fontFamily=Verdana;fontSize=12;align=center;arcSize=50;" vertex="1" parent="1">
          <mxGeometry x="80" y="610" width="100" height="20" as="geometry" />
        </mxCell>
        <mxCell id="1oA8xBJ8QGd1Spcs3NDZ-39" value="" style="edgeStyle=none;rounded=1;html=1;labelBackgroundColor=none;startArrow=none;startFill=0;startSize=5;endArrow=classicThin;endFill=1;endSize=5;jettySize=auto;orthogonalLoop=1;strokeColor=#B3B3B3;strokeWidth=1;fontFamily=Verdana;fontSize=12;entryX=1;entryY=0.5;entryDx=0;entryDy=0;" edge="1" parent="1" source="2c924340bb9dbf6c-67" target="1oA8xBJ8QGd1Spcs3NDZ-38">
          <mxGeometry relative="1" as="geometry">
            <mxPoint x="291.40703766661727" y="611.616421222107" as="sourcePoint" />
            <mxPoint x="264.3478260869565" y="550" as="targetPoint" />
          </mxGeometry>
        </mxCell>
        <mxCell id="1oA8xBJ8QGd1Spcs3NDZ-49" value="&lt;p class=&quot;MsoNormal&quot;&gt;&lt;span style=&quot;font-family: &amp;#34;calibri&amp;#34; ; font-size: 16px ; text-align: left&quot;&gt;Cell*Tree&lt;/span&gt;&lt;br&gt;&lt;/p&gt;" style="whiteSpace=wrap;html=1;rounded=1;shadow=1;comic=0;labelBackgroundColor=none;strokeWidth=2;fontFamily=Verdana;fontSize=12;align=center;arcSize=50;" vertex="1" parent="1">
          <mxGeometry x="80" y="540" width="100" height="20" as="geometry" />
        </mxCell>
        <mxCell id="1oA8xBJ8QGd1Spcs3NDZ-58" value="&lt;p class=&quot;MsoNormal&quot; align=&quot;justify&quot; style=&quot;text-align: justify&quot;&gt;&lt;b style=&quot;font-family: &amp;#34;helvetica&amp;#34; ; text-align: left&quot;&gt;&lt;font face=&quot;Calibri&quot; style=&quot;font-size: 14px&quot;&gt;Model-based&amp;nbsp;&lt;/font&gt;&lt;/b&gt;&lt;/p&gt;&lt;p class=&quot;MsoNormal&quot; align=&quot;justify&quot; style=&quot;text-align: justify&quot;&gt;&lt;b style=&quot;font-family: &amp;#34;helvetica&amp;#34; ; text-align: left&quot;&gt;&lt;font face=&quot;Calibri&quot; style=&quot;font-size: 14px&quot;&gt;clustering methods&lt;/font&gt;&lt;/b&gt;&lt;br&gt;&lt;/p&gt;" style="ellipse;whiteSpace=wrap;html=1;rounded=1;shadow=1;comic=0;labelBackgroundColor=none;strokeWidth=2;fontFamily=Verdana;fontSize=12;align=center;" vertex="1" parent="1">
          <mxGeometry x="170" y="320" width="140" height="100" as="geometry" />
        </mxCell>
        <mxCell id="1oA8xBJ8QGd1Spcs3NDZ-59" value="" style="edgeStyle=none;rounded=1;html=1;labelBackgroundColor=none;startArrow=none;startFill=0;startSize=5;endArrow=classicThin;endFill=1;endSize=5;jettySize=auto;orthogonalLoop=1;strokeColor=#B3B3B3;strokeWidth=1;fontFamily=Verdana;fontSize=12;exitX=0;exitY=0.5;exitDx=0;exitDy=0;entryX=1;entryY=0.5;entryDx=0;entryDy=0;" edge="1" parent="1" source="2c924340bb9dbf6c-4" target="1oA8xBJ8QGd1Spcs3NDZ-58">
          <mxGeometry relative="1" as="geometry">
            <mxPoint x="466.38755298652586" y="288.7937569596829" as="sourcePoint" />
            <mxPoint x="364.6009918559191" y="192.67871453059047" as="targetPoint" />
          </mxGeometry>
        </mxCell>
        <mxCell id="1oA8xBJ8QGd1Spcs3NDZ-61" value="&lt;p class=&quot;MsoNormal&quot;&gt;&lt;span style=&quot;font-size: 12pt&quot;&gt;&lt;font face=&quot;Calibri&quot;&gt;SWEM&lt;/font&gt;&lt;/span&gt;&lt;/p&gt;" style="whiteSpace=wrap;html=1;rounded=1;shadow=1;comic=0;labelBackgroundColor=none;strokeWidth=2;fontFamily=Verdana;fontSize=12;align=center;arcSize=50;" vertex="1" parent="1">
          <mxGeometry x="180" y="250" width="100" height="20" as="geometry" />
        </mxCell>
        <mxCell id="1oA8xBJ8QGd1Spcs3NDZ-62" value="&lt;p class=&quot;MsoNormal&quot;&gt;&lt;span style=&quot;font-size: 12.0000pt&quot;&gt;&lt;font face=&quot;Calibri&quot;&gt;GCPSOM&lt;/font&gt;&lt;/span&gt;&lt;/p&gt;" style="whiteSpace=wrap;html=1;rounded=1;shadow=1;comic=0;labelBackgroundColor=none;strokeWidth=2;fontFamily=Verdana;fontSize=12;align=center;arcSize=50;" vertex="1" parent="1">
          <mxGeometry x="60" y="310" width="100" height="20" as="geometry" />
        </mxCell>
        <mxCell id="1oA8xBJ8QGd1Spcs3NDZ-63" value="" style="edgeStyle=none;rounded=1;html=1;labelBackgroundColor=none;startArrow=none;startFill=0;startSize=5;endArrow=classicThin;endFill=1;endSize=5;jettySize=auto;orthogonalLoop=1;strokeColor=#B3B3B3;strokeWidth=1;fontFamily=Verdana;fontSize=12;exitX=0.5;exitY=0;exitDx=0;exitDy=0;entryX=0.5;entryY=1;entryDx=0;entryDy=0;" edge="1" parent="1" source="1oA8xBJ8QGd1Spcs3NDZ-58" target="1oA8xBJ8QGd1Spcs3NDZ-61">
          <mxGeometry relative="1" as="geometry">
            <mxPoint x="466.38755298652586" y="288.7937569596829" as="sourcePoint" />
            <mxPoint x="364.6009918559191" y="192.67871453059047" as="targetPoint" />
          </mxGeometry>
        </mxCell>
        <mxCell id="1oA8xBJ8QGd1Spcs3NDZ-64" value="" style="edgeStyle=none;rounded=1;html=1;labelBackgroundColor=none;startArrow=none;startFill=0;startSize=5;endArrow=classicThin;endFill=1;endSize=5;jettySize=auto;orthogonalLoop=1;strokeColor=#B3B3B3;strokeWidth=1;fontFamily=Verdana;fontSize=12;exitX=0;exitY=0.5;exitDx=0;exitDy=0;entryX=0.572;entryY=1.07;entryDx=0;entryDy=0;entryPerimeter=0;" edge="1" parent="1" source="1oA8xBJ8QGd1Spcs3NDZ-58" target="1oA8xBJ8QGd1Spcs3NDZ-62">
          <mxGeometry relative="1" as="geometry">
            <mxPoint x="230" y="320" as="sourcePoint" />
            <mxPoint x="180" y="280" as="targetPoint" />
          </mxGeometry>
        </mxCell>
        <mxCell id="1oA8xBJ8QGd1Spcs3NDZ-66" value="&lt;div&gt;&lt;span style=&quot;font-family: &amp;#34;calibri&amp;#34; ; color: rgb(0 , 0 , 0)&quot;&gt;&lt;font style=&quot;font-size: 16px&quot;&gt;Based on SOM&lt;/font&gt;&lt;br&gt;&lt;/span&gt;&lt;/div&gt;" style="text;whiteSpace=wrap;html=1;" vertex="1" parent="1">
          <mxGeometry x="50" y="280" width="100" height="40" as="geometry" />
        </mxCell>
        <mxCell id="1oA8xBJ8QGd1Spcs3NDZ-67" value="&lt;p class=&quot;MsoNormal&quot;&gt;&lt;span style=&quot;font-weight: normal ; font-size: 12.0000pt&quot;&gt;&lt;font face=&quot;Calibri&quot;&gt;EM-based algorithm&lt;/font&gt;&lt;/span&gt;&lt;/p&gt;" style="text;whiteSpace=wrap;html=1;" vertex="1" parent="1">
          <mxGeometry x="170" y="200" width="160" height="50" as="geometry" />
        </mxCell>
      </root>
    </mxGraphModel>
  </diagram>
</mxfile>
